<svg width="566" height="109" viewBox="0 0 566 109" fill="none" xmlns="http://www.w3.org/2000/svg">
<path fill-rule="evenodd" clip-rule="evenodd" d="M229.262 0C229.675 0.352692 230.088 0.705387 230.501 1.05808L230.549 1.65823C232.479 3.3048 231.881 4.66851 234.3 4.15541C235.697 4.18173 235.527 3.83156 235.74 2.4385C236.002 1.9922 236.263 1.54639 236.525 1.10008C240.192 1.97701 240.096 2.17234 243.867 2.22497C244.264 2.4633 244.661 2.70163 245.057 2.94047C242.923 6.25032 241.99 6.28827 242.983 7.27854C243.845 8.13724 245.896 4.55516 246.106 4.51417C246.239 4.48786 247.457 4.24952 247.767 4.15742C248.517 4.70797 248.689 4.63512 249.063 3.82044C251.665 4.57035 251.717 4.19336 253.822 2.53465C254.006 2.76691 254.19 2.99917 254.374 3.23144C255.047 3.40297 254.959 3.36298 255.603 3.32959C256.607 5.38907 256.495 5.6021 256.684 5.54492C258.001 5.14618 256.197 3.08012 256.054 2.91718C256.211 1.11881 256.517 0.130072 257.851 1.38651C258.755 2.23712 258.196 2.53767 259.041 3.35337C260.843 5.0723 261.064 3.88063 262.919 2.27049C263.266 2.0615 263.612 1.85304 263.959 1.64405L264.635 1.14817C265.375 1.22711 266.115 1.30553 266.855 1.38447C267.098 4.21461 266.86 4.20954 266.972 4.42612C267.125 4.72163 267.818 4.13518 267.971 4.43069C271.297 4.76516 271.056 3.61297 270.821 3.57552C269.207 3.31796 269.054 3.38879 268.456 1.77865L269.129 1.10666C270.306 2.73957 273.795 4.1878 275.986 2.73858C277.324 3.24307 277.213 3.25925 278.71 3.42169C279.252 3.42675 279.794 3.4313 280.335 3.43636L281.491 3.44547C282.637 3.93428 282.617 4.20601 283.726 3.56539C285.599 2.46532 285.572 2.59183 287.1 1.10061C287.643 2.13541 287.78 1.86165 288.865 2.17994C293.648 2.62624 293.524 3.27443 293.891 3.09378C295.925 2.0939 295.528 1.33539 297.805 1.11679C297.732 1.78928 297.659 2.46128 297.587 3.13378C297.599 3.22587 297.743 4.28241 297.743 4.28241C297.869 4.28747 297.743 4.28243 298.957 3.26584C300.747 2.76387 300.662 2.92629 302.337 2.1951C304.66 1.88643 304.488 1.14309 306.74 1.36776L306.841 1.78927C308.384 2.86506 308.269 2.88633 310.107 3.36856C310.562 3.58109 311.017 3.79362 311.472 4.00615C314.052 6.9972 314.588 4.97819 314.494 4.74744C314.363 4.41954 313 3.22941 312.861 3.10746C312.491 2.71277 312.121 2.31807 311.751 1.92338L311.812 1.12084C313.747 1.303 314.014 0.684666 315.157 2.0585C315.941 2.33933 316.125 1.97347 316.855 3.0275C317.792 3.10442 317.738 3.13325 318.597 2.85545C319.403 3.22028 319.328 3.30886 320.279 3.18387C320.462 2.96021 320.645 2.73604 320.827 2.51238C322.172 2.32313 322.21 1.97044 323.22 2.89291C322.031 5.48421 324.039 3.47683 324.074 3.40498C324.168 3.28151 324.768 2.49618 325.331 1.92894C326.188 2.06708 326.052 2.23205 326.993 2.4041C326.891 2.55742 325.667 4.39425 325.93 4.44536C327.775 4.80716 327.814 4.25915 327.981 2.37778C328.204 2.0342 328.426 1.69111 328.65 1.34753C328.811 1.47505 329.31 2.59537 330.41 1.99018C332.538 0.819261 332.583 1.30554 335.957 1.11932L336.528 1.87884C336.911 2.0185 337.295 2.15816 337.678 2.29782C338.469 1.93754 338.447 2.14146 339.06 1.5312C339.339 1.83785 339.618 2.14501 339.897 2.45166C339.971 3.77539 339.977 4.08051 341.3 4.01371C341.341 3.63623 341.381 3.25875 341.422 2.88126C341.658 2.66216 341.894 2.44358 342.131 2.22447L343.243 2.23105C344.792 3.70102 345.115 2.0595 347.185 2.4633C347.044 3.88318 347.007 4.06331 348.296 4.52075C348.429 4.62549 349.37 5.36074 350.069 5.68662C350.247 7.71422 351.016 7.62415 352.845 6.67082C355.566 6.28119 353.744 5.25547 353.366 4.47773C353.803 4.20549 358.925 -1.87528 360.829 1.11173C362.491 2.72743 362.734 3.25875 364.591 1.88239C364.843 2.2619 365.095 2.64092 365.348 3.02043C365.352 4.02943 365.4 4.03093 366.319 4.37806C367.015 4.12505 366.951 4.23841 367.53 3.70051L367.93 3.49355C368.056 3.65143 372.173 8.82542 370.386 4.08052C370.298 3.84725 370.282 3.80372 368.374 1.6982L368.53 1.32678C369.622 1.17649 369.577 1.0839 370.36 1.70731C374.139 1.65721 374.842 0.277313 377.03 3.35034C378.186 3.64838 378.105 3.47989 379.212 3.33416C380.707 2.60145 379.802 1.36321 381.493 1.2529C381.614 1.88845 381.735 2.52401 381.857 3.15957C382.306 3.62156 382.755 4.08306 383.204 4.54505C383.695 5.36935 383.866 5.21349 384.582 4.61133C384.239 3.71822 384.373 3.76627 383.596 3.10187C383.641 2.4314 383.687 1.76144 383.732 1.09097C385.043 1.43152 384.773 2.6809 386.01 2.02156C388.063 0.927554 388.095 1.1436 390.436 1.12791L390.559 1.71339C391.718 2.396 391.747 2.09996 392.687 1.11475C393.884 1.23114 393.937 0.778783 395.16 1.68961C396.871 2.05394 396.988 2.81043 398.878 1.35766C400.816 -0.132047 400.898 2.23811 403.375 1.92084C403.743 2.07923 404.11 2.23762 404.478 2.396C406.117 2.17083 405.929 1.8318 406.7 1.36273C407.461 1.95021 407.337 1.99574 408.339 2.18954C409.494 2.18347 409.349 2.25784 410.605 2.50225C412.405 4.75452 411.494 1.76398 411.808 1.36727C411.919 1.2271 411.972 1.34855 414.025 1.11781C414.956 1.19928 415.887 1.28073 416.817 1.3622C417.039 1.61571 417.173 2.57462 420.757 2.44761C420.871 2.36463 420.734 2.31403 421.891 1.10212C422.462 1.00395 423.034 0.905771 423.605 0.807604C424.69 1.52564 424.675 1.56412 425.897 1.08087C427.267 1.22256 427.277 0.906806 428.319 1.67899C428.957 3.85434 429.776 4.71657 430.99 2.8094C431.924 3.46469 431.837 3.78196 432.513 3.46672C433.775 2.87873 432.286 2.68292 432.004 1.34299C435.732 1.18258 435.86 0.660351 437.267 1.6906C438.317 1.87428 439.368 2.05799 440.418 2.24167C441.296 2.71834 441.067 3.491 445.544 3.4156C447.352 4.88203 447.86 4.39072 448.897 2.22852C449.777 2.25028 449.695 2.15461 450.403 1.7078C452.753 3.46974 452.799 5.23827 454.962 3.34021C455.498 1.58788 455.375 1.03887 457.251 1.36677C458.251 2.77805 458.501 2.31606 460.165 2.18095C460.511 2.08734 460.857 1.99321 461.202 1.89959C462.125 2.26494 462.055 2.32264 463.035 2.22194C463.561 3.03257 463.582 2.93288 464.492 2.93389C466.135 2.22851 466.12 3.10898 467.895 3.0771C470.234 3.13833 469.641 1.66127 471.857 1.11528C472.897 2.88835 473.406 2.20219 474.194 2.19612L476.311 2.18803C477.428 2.56248 477.351 2.50225 478.607 2.36917C478.924 2.48606 479.242 2.60294 479.56 2.71983C480.175 3.25115 480.123 3.15048 480.829 3.36047C481.741 2.40208 481.643 2.42332 481.983 1.12084C485.102 1.05404 485.081 1.051 485.351 1.04847C486.193 1.0419 486.119 1.12437 487.033 1.11729C488.623 2.22141 488.748 2.20724 490.404 1.1188C492.948 1.37282 492.767 1.91832 495.378 2.18296C496.165 2.20624 496.951 2.22953 497.738 2.2523C498.874 1.61067 498.672 1.35613 499.969 1.29086C500.143 1.56866 500.317 1.84697 500.491 2.12477C501.133 2.16627 501.09 2.19358 501.577 1.7827L502.191 1.1259C505.419 1.17549 505.36 1.01053 507.229 1.37638C507.757 1.91882 507.878 1.93097 508.378 1.34095C509.876 1.27972 511.374 1.21798 512.871 1.15676C513.862 1.55448 514.039 2.70872 515.671 1.14412C523.56 1.14817 524.095 3.1125 527.986 0.0435166L528.637 0.684652C529.082 1.16688 529.008 1.17701 529.715 1.26961C530.482 1.22103 531.249 1.17244 532.015 1.12386C532.355 1.12032 532.696 1.11731 533.036 1.11376C533.969 1.2428 533.867 1.26253 534.848 1.07025C537.922 1.02622 537.814 1.10211 538.071 1.09452C538.989 1.27466 538.884 1.30401 539.853 1.15271L547.124 1.14057C547.392 1.52464 547.232 1.52311 547.49 1.89453C547.569 2.00788 547.49 1.89453 548.548 3.25571C549.165 3.81233 549.406 4.20147 549.676 3.40652C550.208 1.83636 549.962 1.87176 550.76 0.56624C551.594 1.35815 551.529 1.29237 551.594 1.35815C551.824 1.59345 551.678 1.57371 551.834 1.7326L551.751 2.98247C552.477 3.42018 552.472 3.26076 553.287 3.03609C555.875 4.84459 557.073 4.33604 556.783 7.50066L556.915 9.09919C557.156 11.863 557.631 12.2598 557.844 12.4374C558.087 12.4718 558.062 12.4814 559.666 12.9833C560.324 13.2475 560.981 13.5116 561.638 13.7758L562.258 14.2165C561.479 18.76 559.771 16.066 559.537 15.7518C559.16 15.8236 558.783 15.895 558.407 15.9668C558.039 16.7734 558.018 16.7223 558.463 17.5552L559.056 18.1725L559.126 19.2817C557.25 19.6967 557.197 19.8059 555.563 18.6983C554.8 18.8556 555.028 19.0388 554.89 19.8272C555.29 21.0194 555.006 21.1722 556.081 21.8371C554.854 22.0941 554.881 22.0709 554.288 23.1512C553.809 24.0261 553.325 23.9836 551.13 24.0069C550.01 23.8895 550.023 24.1643 550.099 25.1474C549.457 25.5072 549.522 25.3615 548.826 25.3924C547.474 22.1574 547.158 25.449 547.144 25.5836L546.507 25.7547C545.271 27.0769 544.004 29.5589 543.223 26.0046C544.03 23.176 543.011 21.5441 540.818 23.5277C538.919 25.2456 542.203 24.483 542.505 25.0159C542.537 25.0715 542.505 25.0159 542.641 25.8063C542.374 25.9829 542.386 25.7238 542.023 25.9637C541.935 26.0224 542.023 25.9636 540.994 26.7986C539.379 25.2026 538.801 24.9339 537.587 26.8289C535.254 26.5238 535.406 25.4126 533.072 26.0183C531.928 25.6292 531.943 25.8589 531.397 26.8401C528.841 26.4611 528.777 24.8023 526.635 26.3609C526.163 23.4017 524.915 23.9421 522.419 25.7197C520.947 25.7263 520.883 25.6449 520.174 26.8259L518.487 26.8385C517.906 25.7703 517.825 25.9065 516.626 25.7375C513.845 23.8824 511.894 30.5021 511.95 27.1447C511.969 25.9804 511.705 25.9748 510.591 25.9955C509.483 25.6707 509.556 25.9535 508.941 26.8259C507.118 26.5688 507.317 25.9748 505.529 25.9798C504.451 25.7162 504.485 25.9313 503.892 26.8274L499.964 26.8385C499.383 26.4575 498.802 26.076 498.221 25.695C497.098 25.8614 497.137 25.7456 496.197 26.2556C493.457 23.6997 493.196 26.0365 492.652 26.8345C488.136 27.0647 488.08 26.875 487.236 27.3592C485.68 26.9813 485.803 26.8239 484.134 26.8618C483.095 26.6073 483.161 26.6619 483.095 26.6073C482.133 25.8139 482.109 26.4434 480.892 26.8219C478.308 28.2959 478.206 27.5166 475.299 26.8639C474.43 27.1204 474.223 27.045 474.32 27.9619C472.76 29.2102 472.101 29.1535 471.68 27.2681C471.624 27.0166 471.473 27.4513 468.522 27.9154C467.883 28.0155 468.031 28.1511 467.685 28.6303C467.283 29.1859 467.231 28.7624 465.774 27.6082C464.8 26.3062 464.55 26.6842 463.616 27.2591C462.235 28.4836 461.57 27.4301 460.629 29.064C460.255 28.9942 459.882 28.9243 459.508 28.8545C458.546 27.2191 457.957 27.7883 457.268 29.0362C454.986 28.6496 455.521 26.161 453.547 27.3714C452.567 27.0065 452.623 26.922 451.565 27.2803C450.099 26.5324 450.982 28.6394 449.414 29.019C448.071 27.7448 448.142 26.5921 446.609 27.7342C446.052 28.1491 446.072 27.9649 445.317 27.7813C445.148 27.4706 444.979 27.1599 444.81 26.8492C444.082 26.8208 443.353 26.7925 442.625 26.7642L441.62 26.8056C441.46 27.1239 441.299 27.4427 441.139 27.761C439.048 28.4492 438.683 26.2946 437.048 27.9159C434.928 27.9796 434.909 27.5864 433.395 28.4406C432.292 28.7609 432.265 29.0918 431.379 28.3004C431.046 27.3537 431.239 27.2383 430.391 26.8284C429.74 27.1887 429.751 27.0986 429.449 27.8344L429.319 28.2863C428.94 29.5604 428.794 29.4992 427.498 29.4967C427.368 29.5346 425.217 30.1626 426.272 30.6711C427.454 31.2404 430.506 30.6382 430.867 30.5674L431.443 30.579C431.637 30.5942 431.816 30.6989 432.01 30.7141C433.333 30.8163 433.193 30.8219 434.407 30.9403C435.734 32.2929 435.748 32.1218 437.62 32.5833C437.825 32.7119 439.232 33.5933 440.451 31.5076C442.445 32.9937 442.585 32.3237 448.852 32.5707C449.616 32.9229 450.381 33.2746 451.145 33.6267C452.315 33.6399 457.208 33.6951 465.712 34.9657C466.073 35.0198 468.719 34.6362 471.277 34.7309C471.508 34.7395 472.866 35.4165 473.001 35.4838C474.236 35.4656 485.146 35.3067 488.303 37.5433C489.022 38.0523 490.11 35.8684 490.98 36.68C491.036 36.7322 491.122 38.6246 493.725 36.508C494.638 38.1065 494.958 37.6242 496.737 37.6086C497.658 38.9505 498.723 37.648 500.54 37.2882L501.053 37.9016C501.284 38.109 500.909 38.1971 501.077 38.3489C501.15 38.4146 501.077 38.3489 502.143 38.952C504.878 40.5819 505.95 39.2379 506.15 38.9875C506.709 38.8994 507.269 38.8114 507.828 38.7238C508.21 38.9576 511.807 41.1593 513.421 38.9318C514.798 38.7117 514.707 39.8381 530.828 39.7824C532.073 40.9493 532.257 40.8208 533.626 39.9347C536.47 40.6669 535.577 41.6779 537.596 43.784C537.854 43.9682 537.82 43.7384 538.146 43.9722C538.226 44.0294 538.146 43.9722 539.118 44.7302C539.729 44.7773 540.34 44.8243 540.952 44.8714C541.888 45.596 541.917 45.5753 543.124 45.2575C543.68 45.552 543.584 45.5348 544.316 45.5302C544.883 46.5615 544.878 46.7244 546.075 46.5843C546.789 46.6217 546.69 46.4734 555.007 46.7113C555.291 46.7194 554.975 47.3838 558.402 47.778C558.472 47.7861 558.402 47.7779 559.104 48.3163C558.764 50.5251 561.094 48.9691 561.957 51.0681C562.426 52.2061 564.579 50.7999 564.769 50.6759L564.797 52.9788C564.526 53.2566 564.969 53.3472 564.755 53.5668C564.704 53.6189 564.755 53.5667 563.956 53.9999C563.111 54.4907 562.979 54.3298 562.843 55.2285C562.822 57.0001 562.43 57.2293 563.973 58.2211C564.632 58.17 565.29 58.1189 565.95 58.0683C565.897 59.6789 566.351 59.7432 565.265 61.0639C564.53 63.0677 563.878 63.6744 563.691 63.849C563.505 64.0818 561.891 66.0997 561.674 66.9817L560.827 67.2489C560.001 67.9614 559.175 68.6743 558.349 69.3868L557.8 69.2856C557.736 69.3322 557.067 68.8489 556.667 71.2439C556.102 71.1548 555.538 71.0658 554.973 70.9767C553.299 70.0057 553.221 70.037 551.61 70.9342C549.972 72.6015 549.838 72.348 547.612 72.2033C555.3 65.8938 545.58 72.2564 545.437 72.3551C544.497 72.2666 543.557 72.178 542.618 72.0889C542.116 71.2808 541.505 70.0634 541.415 69.8837C540.273 69.9713 540.306 69.863 539.258 70.3928C537.963 69.7314 536.336 70.4186 537.502 69.5239C539.154 68.2564 536.275 66.9149 535.6 68.8059C535.525 69.0139 535.14 70.0957 534.182 71.1771C527.228 67.9634 526.915 68.4036 526.546 68.9223C525.67 70.1539 525.489 69.1869 524.149 68.4223C523.491 67.8202 521.763 66.5385 522.62 68.8692C520.462 70.4788 520.322 69.4303 517.949 68.3434L516.156 68.1769C515.629 67.2251 515.3 67.4311 514.695 68.3449C514.054 68.3682 513.412 68.3915 512.771 68.4147L512.362 68.4391C512.113 68.2518 510.635 65.4672 509.491 67.5561C508.39 68.6885 508.156 68.7325 507.055 67.6491C507.418 67.0288 507.507 67.0592 507.146 66.5455C506.181 66.5288 506.234 66.4727 506.181 66.5288C504.431 68.393 504.192 66.4226 501.633 66.1939C500.132 65.1788 499.674 64.5599 498.753 66.2015C498.535 66.4545 498.318 66.7075 498.101 66.961C497.388 67.09 497.478 67.0819 496.752 66.9605C495.737 65.8887 495.672 66.1989 494.296 66.3978C492.514 66.1013 492.621 65.2385 490.904 66.0132C490.641 66.0289 487.654 66.207 487.605 66.2035C486.505 66.125 487.433 64.4466 485.403 64.4167C483.707 64.3681 483.839 64.5584 482.54 65.4682C481.619 65.3903 480.699 65.3124 479.778 65.2345L479.515 64.4415C479.096 64.3413 477.307 63.9143 474.138 64.1723C472.556 58.4351 472.428 65.153 472.425 65.3179C470.931 65.3893 469.435 65.4601 467.94 65.5315C466.108 62.0056 465.091 63.9229 461.124 64.4668C459.567 64.1384 459.667 64.2158 459.567 64.1384C457.165 62.2879 456.062 66.1782 454.266 63.8459C452.794 61.9357 450.144 64.8276 449.387 64.2295C446.611 62.0349 446.632 64.6308 443.249 65.5472C442.717 64.5164 442.938 64.436 441.917 63.7635C439.973 63.1461 440.143 63.9821 438.184 64.4228C436.949 63.3167 436.936 63.5145 435.347 63.1932C435.19 62.9296 435.033 62.6664 434.876 62.4028C431.003 60.3484 434.659 64.5954 434.781 64.7371C432.428 67.3182 432.326 63.9967 430.928 63.2453L430.789 63.4897C430.619 63.4578 429.836 63.3101 428.629 63.6228L427.939 63.7533C427.622 63.4943 427.305 63.2347 426.987 62.9756C426.602 62.8491 426.216 62.7226 425.83 62.5961C424.604 62.6836 424.69 62.5667 423.569 63.1315L422.962 63.2316C422.007 62.5703 422.012 62.1255 421.399 62.6376C421.399 62.6376 421.977 63.7275 422.027 63.8222C420.681 64.9708 420.599 64.3236 419.085 64.188L418.997 63.7463C419.05 63.6415 420.693 60.4369 417.856 62.8228C417.52 62.9417 417.185 63.0606 416.85 63.18L415.746 63.219C415.509 63.3774 415.523 63.3197 412.635 64.9718C408.68 62.375 406.629 64.0696 406.233 64.397C405.812 64.018 405.392 63.639 404.971 63.26L403.927 63.0024C402.611 62.6315 402.728 62.9377 401.769 63.7478L401.164 63.5044C400.764 63.3845 400.363 63.2645 399.962 63.1451C399.521 63.4442 399.476 63.012 399.029 63.3151C398.952 63.3667 399.029 63.3151 398.31 64.2174C397.618 64.6414 396.604 64.8924 396.449 64.9303C396.133 64.7274 395.816 64.5245 395.499 64.3211C393.878 64.2376 393.951 64.4608 392.685 65.4667C391.51 65.618 388.549 66.1382 388.191 66.2009C387.438 66.2794 386.684 66.3578 385.931 66.4362C384.574 65.6119 384.519 65.6793 383.171 66.4226C378.793 64.5792 377.728 67.6016 369.616 65.4111C370.35 65.0164 370.916 65.1145 370.324 64.5989C369.067 63.5039 368.727 64.2174 368.495 65.8472C368.255 65.9186 368.406 65.9737 368.052 66.0795C367.954 66.1088 368.052 66.0795 366.811 66.3937C363.615 66.1104 362.848 64.396 361.224 67.261C360.157 66.9585 360.223 67.0161 360.157 66.9584C357.62 64.7623 356.498 69.8954 354.438 67.2909C353.208 67.9427 353.368 68.9962 352.215 68.1648C350.275 66.7647 349.968 70.078 348.094 68.7098C347.915 67.9254 347.994 68.0069 347.558 67.2332C347.53 67.1528 348.498 66.4398 347.178 66.1615C346.82 66.0856 346.892 66.3755 346.593 66.3123C346.331 66.5587 344.879 67.9234 342.096 66.1443C340.205 64.9288 339.809 64.1253 339.692 63.889C338.163 62.6831 336.363 62.755 337.635 64.2275C338.132 64.6348 338.63 65.0427 339.127 65.45C339.082 65.78 339.038 66.1099 338.992 66.4398C339.033 68.5858 339.13 68.5362 339.125 68.7189C340.104 69.9126 340.143 69.8038 341.563 70.288L342.114 70.2769L342.996 70.1089C342.967 70.2789 342.289 74.1752 345.001 70.9155C345.355 70.9231 345.71 70.9307 346.065 70.9382C346.815 70.4818 347.389 69.0002 349.052 70.8092C351.79 70.9109 352.189 67.8242 354.06 70.1261C354.25 70.4707 355.049 71.9179 358.982 70.1428L360.114 70.1473L364.051 70.1458C365.108 71.3957 365.013 71.3542 366.379 72.4062C366.433 72.4608 368.833 74.3948 367.184 71.8855L367.417 70.3908C368.561 70.0871 368.504 70.1651 369.732 70.1281C369.401 71.5799 369.234 72.2068 370.765 71.9994C371.761 73.483 372.411 72.9512 373.038 71.2135C373.415 71.1315 373.792 71.0496 374.169 70.9676C374.452 70.7495 376.765 68.9734 378.608 70.4231C380.643 72.0247 381.019 70.7399 385.372 71.9027C386.362 72.4578 386.157 72.5843 386.567 73.6991C387.596 74.8791 387.945 74.1823 388.744 74.2233C388.951 74.1008 389.158 73.9789 389.365 73.8564C389.805 72.4204 389.613 72.4497 388.75 71.2601C390.408 71.4519 390.447 70.9403 392.247 71.8789C392.446 72.2711 392.645 72.6638 392.844 73.0559C393.308 74.0533 393.29 74.0305 393.317 74.0518C394.055 74.1332 394.794 74.2152 395.532 74.2967C396.055 75.2131 396.185 74.833 397.159 74.9469C396.953 74.3543 396.746 73.7623 396.539 73.1698C398.13 73.2958 398.071 73.4187 399.514 72.7366C402.906 69.6074 410.855 73.5599 411.175 73.8023C413.891 74.109 414.142 72.1066 416.249 73.774C419.898 74.8391 425.605 72.7316 426.068 75.4246L426.041 76.464C426.188 76.8106 426.336 77.1577 426.483 77.5043C426.458 77.7593 426.56 81.0439 429.688 77.437C430.345 79.2146 430.227 79.8213 432.006 79.4074C435.95 78.4895 435.582 80.3633 435.867 80.2282C437.281 79.5587 437.325 80.1609 438.905 79.6928C440.429 80.3 440.289 79.623 441.273 78.3114C441.831 78.8776 441.697 78.9085 442.569 79.0891C442.53 79.2551 441.571 83.3311 443.268 81.1026C444.215 79.8603 444.055 79.6827 442.968 78.6737C443.259 77.0454 443.766 77.4501 445.347 77.4927C445.522 77.3368 447.005 76.0186 448.26 77.1435C449.993 78.696 450.604 77.5357 452.322 79.1261C452.78 79.6792 452.749 79.6675 453.517 79.7176C457.726 82.0164 458.878 76.7276 463.085 80.2459C463.262 80.7403 462.343 80.3061 462.547 80.8744C462.587 80.9877 462.547 80.8744 464.009 81.2422C464.643 81.0985 465.276 80.9548 465.91 80.8106C467.495 81.7391 467.596 81.4639 469.049 80.2631C469.603 80.4969 470.156 80.7312 470.71 80.9649C471.293 81.0904 471.876 81.2159 472.459 81.3414C473.848 81.2878 473.758 81.3293 475.198 81.1097C475.558 81.136 475.449 81.3136 475.818 81.3409C476.044 81.3576 476.028 81.3515 478.649 81.4846C480.009 82.15 479.971 81.9886 481.446 82.0144C484.034 81.7796 483.958 81.8378 486.507 82.0109C487.124 83.1368 487.438 83.2278 488.202 82.271C489.188 82.104 497.976 82.0762 498.825 82.0736C502.104 82.0635 502.366 84.2237 505.027 82.2001C505.71 81.681 507.655 80.2014 515.716 83.0978L516.306 83.745C516.834 84.3051 517.225 84.88 517.296 84.9847C517.961 86.398 518.126 86.1455 519.565 86.393C518.622 88.2784 518.732 88.4287 518.55 88.4231C515.844 88.3426 516.617 89.4569 516.776 89.506C520.807 90.7518 520.691 86.4891 522.59 85.5014C522.768 85.8197 522.947 86.1379 523.126 86.4557C523.65 87.1667 523.509 87.1829 524.101 87.7784C524.572 88.2511 524.562 87.8721 525.727 86.7781C528.325 87.1024 527.574 87.9505 527.666 88.831C527.504 90.1436 527.497 90.0297 527.623 91.2745C527.392 91.2892 527.434 91.3413 524.782 91.8291L524.644 92.2627L524.423 92.7956C526.715 94.9107 526.95 95.3079 525.323 97.8901C525.074 102.745 522.308 102.491 521.851 102.45C520.545 100.197 519.249 102.305 519.135 102.49C517.129 103.81 518.449 104.287 519.303 106.499C518.667 107.24 518.739 107.153 517.97 107.643C517.117 106.823 517.166 106.936 515.963 106.461C515.343 106.047 515.415 105.992 514.626 105.955C513.536 106.535 513.566 106.42 512.866 107.024C506.713 107.101 507.203 108.796 506.688 108.8C505.585 108.81 504.778 104.252 502.753 108.548C502.599 108.464 501.659 107.954 500.853 107.443C500.171 104.288 498.435 108.569 495.525 107.281C492.293 105.85 491.323 108.822 489.188 107.009C488.55 106.105 488.299 105.959 487.561 106.801L487.07 107.016C485.431 105.412 485.523 105.405 485.334 105.419C485.148 105.433 484.724 105.463 484.792 107.695C480.904 105.963 479.582 105.961 479.106 105.961C478.099 105.977 478.271 106.161 477.473 106.851C475.667 108.411 473.234 104.617 470.775 106.903C470.371 107.278 466.822 105.576 466.589 105.402C465.375 104.908 465.481 104.891 464.092 104.891C463.023 105.431 463.037 105.317 462.284 105.945L461.756 105.755C460.007 103.115 456.182 104.158 454.479 104.598C452.816 101.689 451.914 104.137 451.115 104.76L449.403 104.853C449.531 99.4411 446.946 104.397 446.598 104.83C446.05 104.981 445.337 103.958 443.236 105.757C443.219 105.772 442.178 106.371 441.916 105.236C441.547 103.643 441.132 104.022 439.846 103.736C438.576 102.312 438.62 101.182 437.05 102.377C436.067 103.125 433.084 102.087 431.42 103.782L429.749 103.739C429.118 103.545 428.487 103.352 427.856 103.159C425.811 102.012 425.777 102.768 424.665 102.899C423.695 102.727 423.766 102.812 422.807 103.169L422.311 102.642L421.85 101.886C420.64 101.62 420.709 101.699 419.565 102.037C419.224 102.003 418.882 101.969 418.541 101.935C417.319 101.724 417.043 101.53 416.779 102.71C416.486 102.857 416.192 103.005 415.899 103.152C415.756 103.155 415.852 103.168 413.529 102.309L412.916 101.81C412.137 101.233 412.125 101.427 411.204 101.714L410.08 102.668C407.536 103.05 406.959 104.516 405.671 102.326C404.693 100.664 404.322 100.611 402.743 101.75C402.539 101.896 398.61 102.23 398.25 102.261C397.865 101.997 397.482 101.732 397.097 101.468C395.426 100.246 395.074 100.395 393.81 101.997C391.802 101.851 391.93 101.616 389.971 101.062C389.157 100.832 389.385 101.244 388.728 101.784C387.583 102.728 387.493 102.291 386.325 101.415C386.603 98.2499 384.359 100.826 381.453 99.5833C380.577 100.205 380.547 100.12 380.485 100.187L380.427 101.862L380.348 102.402C379.164 102.609 379.266 102.545 378.124 102.255C378.121 101.13 378.21 101.13 378.001 100.834C378.555 99.6055 378.551 99.7128 378.555 99.6055C378.784 93.378 377.528 100.511 377.521 100.627C376.295 100.887 376.385 101.218 376.922 102.266C376.185 102.401 375.449 102.537 374.713 102.673C372.709 99.4299 371.056 100.672 370.78 100.88C366.027 100.701 365.828 101.259 364.665 100.047C364.598 99.9774 364.665 100.047 363.479 99.7882C362.606 98.3081 361.192 98.5642 361.776 100.111C360.968 102.722 360.201 101.916 359.571 102.022C357.159 101.811 356.728 102.273 355.686 100.081C354.742 98.0971 352.058 97.7054 351.688 97.6513C352.25 96.8862 352.528 96.9783 352.339 96.1687C351.226 91.4162 351.197 97.4529 351.197 97.5992C350.838 98.0784 350.478 98.5576 350.119 99.0368C349.394 99.1754 349.443 99.0519 348.918 99.6435C346.826 102.512 347.006 99.2756 346.699 98.9396C346.632 98.8662 346.699 98.9396 345.454 98.9507C343.495 99.1051 343.895 99.7462 342.14 100.695C341.918 100.637 340.455 101.53 340.346 99.5539C340.332 99.2958 339.916 98.4721 339.871 98.382C339.32 98.8404 338.768 99.2989 338.216 99.7578C336.572 101.172 336.104 100.833 335.944 100.717C333.261 98.7757 333.002 99.895 331.52 99.7791C330.015 99.7841 330.165 100.075 329.283 101.21C328.645 100.426 328.623 100.562 328.04 99.8337C328.086 99.1987 328.672 98.9841 328.099 99.018C327.036 99.0808 326.487 99.5483 326.415 99.5716C324.909 98.7853 325.02 98.8536 324.902 98.7666C320.562 97.4277 320.001 99.7502 319.903 100.154C317.984 101.167 317.972 101.053 316.868 101.895C313.138 101.749 312.109 102.191 311.576 98.4716C310.841 93.3436 309.741 102.203 304.495 101.839C307.675 99.7052 302.965 99.7796 302.749 99.7826C301.097 98.8622 299.854 97.8699 300.207 99.8115C299.095 101.141 298.714 101.173 297.643 99.8059C297.583 99.3378 297.524 98.8703 297.464 98.4022C296.64 97.4712 296.739 97.4595 296.64 97.4711C294.72 97.7029 295.34 99.982 290.451 99.5458C292.997 95.695 289.401 99.4795 289.345 99.5484C288.79 99.5438 288.236 99.5397 287.681 99.5352C286.225 97.6093 285.887 98.9518 283.626 99.8464L283.299 98.9644C284.366 98.2848 284.092 98.0743 283.571 96.9393C282.786 96.5259 282.843 96.6509 282.018 96.5953L281.529 96.7976C281.47 97.5379 281.411 98.2783 281.351 99.0186C280.823 99.3556 280.295 99.6926 279.767 100.03C278.688 100.654 278.656 100.509 277.903 101.415C276.675 99.0676 276.111 99.9643 275.539 100.341C274.233 99.4967 274.329 99.5762 274.233 99.4967C274.069 99.3611 274.324 99.2635 274.122 99.0965C273.66 98.6466 273.664 98.8541 273.095 99.0702C272.892 99.308 272.69 99.5453 272.487 99.7831L270.812 99.7801C269.953 99.0666 270.09 99.0155 269.055 98.6573C269.874 95.694 268.118 96.6388 268.086 96.7865C268.054 96.9307 268.12 96.9191 268.542 98.5778C267.826 98.6254 267.11 98.673 266.395 98.7205C266.225 99.0945 266.055 99.4684 265.885 99.8428C263.764 105.283 262.806 100.446 262.768 100.198C262.77 100.115 262.821 97.9159 261.813 99.7912L257.9 99.7755C257.511 99.3874 257.121 98.9988 256.731 98.6107C256.376 98.7392 256.02 98.8678 255.666 98.9963C253.131 98.7129 252.397 97.6381 252.033 99.5008C251.554 101.951 250.528 100.732 247.191 100.826C246.645 96.8341 245.084 99.7406 245 99.8029C244.227 99.14 244.334 99.1719 243.509 98.76C242.066 98.337 242.041 98.4716 240.964 99.4623C240.829 99.5858 239.154 99.4876 237.156 100.905L236 100.897C234.35 98.8268 233.934 98.0065 232.065 99.7801C227.923 99.5069 227.931 99.5944 227.572 99.562C226.882 100.014 226.919 99.8995 226.382 100.575C225.875 100.569 225.368 100.562 224.861 100.556L224.226 99.9436C222.505 99.6404 222.638 99.6804 222.505 99.6404C221.994 99.4871 222.183 99.265 221.698 99.1192L221.478 98.9695C221.474 95.2437 219.536 99.4907 219.274 99.8428C217.679 101.691 216.787 101.098 216.159 98.7155C214.59 99.522 214.515 100.06 213.008 98.9614C210.739 97.3072 208.353 103.567 204.033 100.077C202.927 99.1835 202.349 100.592 201.111 99.1066C199.938 97.7004 200.308 99.6743 198.977 100.854C197.596 100.096 198.047 99.8302 197.338 98.4275C195.439 95.8949 196.22 100.272 196.221 100.711C195.535 100.576 194.848 100.441 194.161 100.306C193.258 99.7447 193.266 99.8064 192.426 100.33C190.413 99.689 190.21 99.4077 188.823 100.899C186.276 101.494 185.426 102.751 184.707 100.228C184.39 99.1167 183.188 100.557 182.625 101.24L182.005 100.745C181.966 99.6916 181.757 99.8439 180.939 99.2599C180.61 99.4168 180.281 99.5732 179.952 99.73C179.278 99.9334 178.604 100.136 177.93 100.34C176.998 99.7578 177.032 99.9623 175.904 99.7553C175.533 99.4993 175.163 99.2432 174.793 98.9872C176.728 98.2686 177.171 98.2869 176.915 96.2567L177.053 95.439C174.959 96.1575 173.863 98.2732 173.694 98.6011C172.91 99.0049 172.125 99.4087 171.341 99.8125C170.978 99.9076 170.615 100.003 170.252 100.098C169.399 99.6865 169.502 99.7361 168.569 99.6313C168.264 99.7057 167.96 99.7796 167.655 99.854C166.358 98.7119 166.235 97.1003 165.398 98.6269C165.352 98.7104 165.397 98.6269 164.733 99.6111C163.329 99.728 163.489 99.9233 162.427 100.885C159.946 100.733 159.839 101.267 157.908 99.7998C155.697 99.5787 155.804 99.4036 153.514 99.8019L153.355 100.026C151.772 102.39 150.888 96.9358 148.914 98.9796C148.059 99.8656 148.323 100.883 147.306 100.074C147.306 100.074 144.679 99.7917 144.451 99.7674C142.762 98.2013 141.997 97.6812 141.085 99.774C138.544 99.6622 138.614 99.1896 136.033 99.6819C135.851 99.6571 135.669 99.6318 135.487 99.607C134.604 99.7431 134.693 99.7902 133.826 99.4952L133.676 99.1324C132.594 98.467 132.641 98.515 131.394 98.8429C129.246 98.6056 128.753 97.8127 127.709 99.732C127.252 101.366 126.704 100.917 125.354 100.705C124.497 99.2862 123.911 99.4264 123.066 100.883C121.616 99.7077 121.59 99.7295 119.731 100.122C117.059 98.2717 116.729 98.9042 114.132 100.912C113.605 100.009 113.226 99.8767 112.971 99.685C111.671 98.7038 111.316 99.3252 111.328 100.71C110.226 100.893 110.312 100.869 110.226 100.893C109.845 101.001 109.962 101.109 109.593 101.213C109.027 99.733 108.816 99.979 107.339 99.7725C102.747 99.6384 102.86 99.8074 98.3737 99.6921C97.5881 98.8961 97.7517 98.4447 96.5975 98.7777L95.5819 99.5185C94.1063 99.2857 94.2571 98.9032 92.7774 98.9249C91.61 98.6568 90.6137 98.7402 90.4259 98.7564C90.3145 99.2984 89.8604 101.512 84.3151 101.993C82.5408 100.338 82.3712 100.833 79.8699 100.692C78.906 99.3151 78.697 99.689 77.038 99.7457C73.9409 101.478 73.8433 100.707 71.4549 100.716C70.327 100.76 69.1996 100.803 68.0717 100.846C66.2487 99.2872 65.9273 99.984 64.0933 98.5783C62.3088 99.0428 62.2323 99.0307 61.3266 100.687C60.1841 102.638 59.7346 101.836 58.5262 101.927C57.5502 101.001 57.5081 101.191 56.2426 100.867C51.7361 100.725 51.6126 101.268 50.1566 100.069C49.946 99.895 49.7065 99.6976 46.858 100.95C44.4311 102.016 44.3961 100.854 41.8285 100.97C40.0673 102.265 39.9368 100.971 37.8005 100.885C36.6104 100.725 36.0651 101.888 31.4994 100.895C28.9829 100.242 29.1039 99.9936 26.5475 99.7902C25.696 100.044 25.6828 99.8909 25.0945 100.587C25.015 100.053 24.9351 99.52 24.8556 98.9862C25.135 98.0895 25.5891 97.8663 24.6981 97.5789C22.3305 96.8148 23.5732 95.6657 21.8743 94.0257C21.1889 93.7525 21.2193 93.7621 20.5718 94.0733C19.2394 93.8855 19.159 93.5966 18.0736 94.5342C17.62 92.6418 18.1343 92.661 19.8469 91.8266C21.2041 91.1652 19.8378 88.7257 22.0981 87.2714C22.6327 86.9273 22.5112 86.8879 22.4454 86.2366C22.6429 85.2074 22.616 85.3136 23.1652 84.4468C27.4333 81.4254 22.1446 83.1853 22.0272 83.246C19.3411 83.3159 18.5929 81.8692 20.3976 81.1188C20.4427 81.1 20.3977 81.1188 20.6063 80.548C21.3484 80.3962 21.2426 80.4463 23.1212 80.3137C27.2187 80.0253 22.6135 78.7228 22.4788 78.6848C22.249 78.6201 21.7398 77.7695 24.8759 76.9057C25.4226 76.931 25.9693 76.9563 26.5166 76.9821C26.9033 77.1294 27.2906 77.2766 27.6773 77.4238C27.7259 77.4294 28.6776 78.3989 29.3828 76.2352C29.6749 76.0799 29.967 75.924 30.2591 75.7687C31.2943 76.2028 31.2418 76.216 32.3216 75.7611C33.2814 76.2899 40.931 76.3061 41.6812 76.3076C48.329 76.0809 48.3503 76.3157 49.3633 75.7525C51.6181 76.1441 51.7887 76.766 53.4598 75.1994C57.3223 75.4079 57.4246 74.9302 59.0501 76.0576C59.2328 76.1846 61.1703 76.4715 61.3561 76.4988C62.0729 76.8035 62.0778 76.6238 62.3522 75.9493C62.9531 75.2475 62.8797 75.2576 62.9531 75.2475C66.4178 74.7774 66.2088 74.0482 66.4614 74.1965C68.2307 75.2348 68.217 75.1326 70.2915 75.1615C72.3104 75.0931 72.2456 75.2945 74.2356 74.8948C74.9924 74.996 75.7498 75.0972 76.5066 75.1984C76.5456 75.2718 78.4677 77.4421 77.4213 74.7081C79.0929 73.397 90.6451 74.5725 91.7178 73.8185C94.2728 72.0237 94.4935 73.0458 102.332 73.0261C104.207 72.9441 104.277 73.1131 105.664 71.9108C106.341 72.5615 106.384 72.4057 107.993 72.9983L110.709 72.9846C112.852 73.147 113.079 73.1865 114.107 71.255L118.62 71.2054C118.865 71.4053 120.307 72.5823 122.566 71.4382C123.427 71.3851 123.393 71.4453 123.427 71.3851C124.721 69.069 125.313 70.243 127.036 70.0968C128.239 74.1165 130.803 71.8015 131.058 71.5718C131.834 67.4139 133.506 69.6196 135.396 69.7466C135.985 69.5523 136.574 69.3575 137.163 69.1631C137.558 70.037 137.417 70.0006 137.815 70.8431C137.973 70.8866 139.466 72.3718 140.834 69.821C145.95 70.8765 147.347 68.9699 147.676 68.5205C148.601 67.2585 148.885 67.6699 150.057 68.7604C150.676 68.2473 150.608 68.2908 150.541 67.4624L150.624 66.9964C152.241 66.7743 152.679 66.4534 152.827 66.3446C153.504 67.4731 153.429 67.3891 153.431 68.6966C153.012 69.5594 152.65 69.6641 153.5 70.2111C153.831 70.0947 154.5 69.8599 155.126 66.1387L156.251 66.1847C158.984 64.8003 159.409 65.1444 159.625 65.32C161.339 66.7095 161.444 65.4419 163.54 65.0346C163.587 65.2046 165.233 70.9489 165.748 65.0715L166.396 64.8221C167.434 64.7821 167.446 64.8388 168.026 63.9876L170.846 63.9153C171.436 64.6237 171.026 65.3372 173.023 65.9996C173.948 66.1544 173.867 66.1352 174.84 66.3123C176.88 65.1343 174.63 64.7735 174.553 63.6349C174.451 62.1488 181.463 61.8037 182.083 61.7728C182.652 62.7019 182.742 62.4898 183.832 62.8582C185.953 63.4427 185.51 63.9421 186.113 64.6763C186.808 66.9989 187.057 64.7396 187.044 64.6662L187.227 64.3216C188.929 64.0058 189.143 64.1642 189.751 62.544C190.016 62.0815 190.281 61.619 190.547 61.1565C192.927 62.0744 192.909 61.7333 195.549 61.7516C196.242 62.5414 195.999 63.0874 197.779 62.9948C198.502 61.6336 197.883 61.6701 197.191 60.2401C198.013 60.1738 198.229 59.2984 200.336 60.5133C201.25 61.1868 201.193 61.03 202.311 61.3523C203.503 62.3896 203.554 62.3633 205.09 61.9585C205.781 63.0596 205.989 63.0606 207.081 62.2965C209.185 65.8412 210.658 63.2701 210.673 63.2625C211.724 62.5541 211.705 62.7368 212.643 61.7252C213.809 61.4267 213.901 61.5102 214.424 60.3823C214.151 60.152 213.879 59.9223 213.606 59.6921C213.521 56.1125 217.294 57.2197 217.979 59.7649C216.763 60.2725 216.818 60.1824 216.762 60.2725C215.966 61.5653 217.209 60.7102 218.569 60.0377C219.936 58.9993 219.946 59.0505 220.051 58.9472C221.38 60.53 222.616 58.8339 221.156 57.286C222.276 56.4354 222.287 56.6879 223.69 56.6013C223.507 58.2317 223.448 58.2267 224.388 59.5388C225.11 59.8181 225.007 59.7548 225.776 59.6713C225.721 58.6532 225.763 58.6866 224.879 58.0131C225.683 55.6303 226.482 57.0502 227.817 57.3204L228.267 57.8193C228.34 57.9094 232.23 61.2116 229.602 57.2647C231.093 56.2952 231.17 56.8812 232.06 56.7334C235.752 56.1196 235.99 53.7844 238.859 56.2547C240.98 56.5189 240.562 54.9603 242.738 54.9365C248.467 54.8743 248.299 54.1335 253.963 53.8835C255.736 53.9857 255.807 53.3042 258.421 54.7169C259.385 55.2371 259.383 54.9148 260.747 54.7094C261.124 54.4862 262.781 52.9418 262.953 52.7825C266.617 50.8475 266.746 51.9349 270.812 51.7188L270.885 52.3108L271.036 52.7784C271.524 52.8487 272.013 52.9186 272.501 52.9889C273.248 51.5513 273.071 51.4511 271.86 50.3551C271.632 50.01 271.403 49.6649 271.175 49.3198C273.31 46.0479 266.052 49.5632 264.039 48.0476L263.504 48.0365C261.901 48.6422 262.087 48.7875 261.508 50.3632C261.098 50.5722 260.687 50.7812 260.277 50.9896C259.565 51.0979 259.619 51.0787 259.565 51.0979C259.121 51.2522 259.264 51.3681 258.835 51.5174C258.501 51.3378 258.168 51.1581 257.835 50.978C257.316 50.1673 257.291 48.0386 255.087 50.3435L253.981 50.3328C252.406 48.661 251.775 48.8573 250.593 50.7933C249.808 50.7923 242.254 50.7822 240.837 49.8192C240.935 48.6068 240.391 48.6093 239.479 49.2965C236.961 52.1641 235.593 50.5211 235.314 50.433C232.894 49.6679 232.785 51.9065 225.892 50.2918C222.447 49.2034 222.475 50.0267 222.455 50.0247C221.952 50.1618 221.449 50.2989 220.946 50.4365C220.524 48.7778 220.052 48.6883 218.538 49.6613C217.079 49.0278 217.139 49.4686 215.842 50.3804C215.645 50.5337 215.447 50.6865 215.249 50.8398C213.766 50.3394 213.798 50.141 212.361 50.8292C210.665 49.4007 210.853 49.2444 210.675 49.1801C209.764 47.9444 209.51 48.9084 207.917 48.9878C206.545 49.1589 206.672 49.3248 205.781 50.4502C203.389 49.2262 203.034 49.0344 201.167 51.0296C196.558 50.7422 196.716 50.3045 192.214 50.1259C192.044 49.8526 190.518 47.4035 188.284 50.9846L185.47 51.0235C184.316 50.0348 184.012 49.7438 183.228 50.9826L182.086 51.0326C180.707 49.2363 180.219 48.668 178.721 50.3612C177.214 48.835 177.033 49.8511 176.59 50.3875C175.924 51.8994 175.938 53.0289 174.77 51.8716C170.622 47.7612 165.54 51.9683 160.23 50.6142C160.851 49.339 160.45 49.0344 159.031 49.1963C157.388 50.0581 157.543 50.2205 157.39 50.2508C156.467 50.4315 156.515 50.2321 155.725 50.8201C154.609 50.0904 154.303 49.6861 153.55 50.9456L151.585 50.8677C150.38 49.6173 147.442 50.7943 146.689 50.1901C144.959 48.8031 144.881 49.1781 142.769 49.0233C141.075 49.5151 141.048 49.466 140.003 50.9755C139.404 50.7908 138.804 50.6061 138.204 50.4214C137.152 50.2873 137.236 50.2954 137.152 50.2873C136.548 50.2306 136.651 50.3627 136.025 50.3045C134.576 48.8654 134.275 49.1204 132.658 50.3257C129.062 50.9112 129.086 50.9193 128.774 50.9578C126.979 51.1794 127.069 50.8247 125.363 51.0352C124.571 49.9225 124.42 50.345 123.078 50.6091C120.25 50.9588 120.259 49.9948 117.436 50.8373C117.108 46.3925 115.346 50.2266 115.272 50.387C114.138 50.7528 114.207 50.6379 110.202 51.0347C109.88 48.5663 108.255 47.7476 106.823 50.3652C103.765 51.2113 103.751 50.4851 100.65 51.0342C99.6227 50.2296 99.6571 50.3525 98.3647 50.3338L97.2779 50.3505C96.677 49.2854 96.7665 49.1508 95.593 49.0481C94.5948 49.1169 94.7259 49.2378 94.0035 49.8005L93.4592 50.4573C91.005 51.5058 90.9827 50.345 88.3595 50.4001C86.8428 49.8541 86.8185 49.6451 85.4056 50.4244C85.2537 50.4229 85.3838 50.4128 82.7058 50.8317C82.069 49.4281 82.3915 48.4479 81.0217 49.1624C80.2436 49.5682 80.5027 49.7256 81.007 50.516C78.4312 51.2022 78.4844 50.9345 75.8915 50.8697C74.7489 49.9999 74.8157 50.0272 73.4575 49.7696C72.1372 49.2464 71.9646 48.6619 71.0837 49.799C70.6281 49.5925 70.1726 49.3856 69.7169 49.1791C67.2693 48.9802 67.2819 49.0162 65.3522 50.4178C64.7452 49.9892 64.1382 49.5612 63.5318 49.1326C62.3406 49.1553 62.3497 49.085 61.4238 49.7453L60.7632 49.6568C59.9557 49.1847 60.0484 49.1017 59.0982 49.087C58.354 50.5438 58.5191 50.7483 56.8445 51.0438C56.3737 50.5292 54.8539 47.0943 54.6145 50.7655C53.398 50.9522 53.4897 50.936 52.3608 50.7255C52.341 50.2038 52.3212 49.6816 52.301 49.1599C51.652 49.5257 51.6399 49.4129 51.1863 50.0732C49.576 50.2084 46.6494 50.9056 46.1477 50.9755C47.0792 48.4272 45.0497 48.3857 42.8926 50.3996C42.6891 50.5403 42.4851 50.6805 42.2816 50.8211C39.5646 47.1318 39.2671 50.2979 38.8712 51.0468C38.3214 50.9309 37.7716 50.8151 37.2214 50.6992C37.069 49.5647 36.6149 49.1583 36.0514 50.1481C35.4951 50.221 34.9387 50.2934 34.3823 50.3662C33.7723 49.3744 33.859 49.1528 32.6288 49.2666C30.977 49.548 31.0473 49.6264 30.0976 50.9582C28.9505 50.1709 29.0022 50.0186 27.5969 50.3055C24.601 50.7923 24.7017 50.7574 23.1248 50.9886C22.0298 49.8956 22.1503 49.8688 22.0298 49.8956C21.558 50.0014 21.4112 50.7467 20.9393 50.853C13.687 51.315 8.805 49.1503 8.62883 49.2935C6.74615 50.8282 6.1098 50.764 5.05937 48.6109C4.7536 47.9839 4.14661 47.8948 4.14256 47.8913L3.98918 47.3939C5.81415 45.6294 3.61454 44.1498 5.95739 43.1398C8.61359 41.9942 5.40249 41.9304 3.62409 39.5608C3.72331 39.1727 3.8226 38.784 3.92182 38.3959C4.06813 38.3524 5.73103 37.8596 5.74926 37.8408C5.9072 37.6794 5.45415 34.576 3.47529 37.8707C2.48155 38.2466 2.58135 38.193 1.8058 38.8357C1.4484 39.1372 1.09141 39.4388 0.734013 39.7404L0 40.1321C0.000506233 39.9003 0.00312245 38.8999 0.555423 37.2893C1.01559 36.5798 1.70304 35.1802 1.79518 34.993L2.21786 34.8098C3.43839 34.531 4.03975 34.9652 3.81751 33.9086C3.62109 32.975 3.43429 32.9765 2.45726 33.272C1.1694 31.2581 1.57994 30.7951 3.78661 29.908C3.47477 29.3018 3.60388 29.3018 2.91591 29.0245C3.0374 28.7108 2.33076 27.7944 5.25477 27.3339C5.38993 27.1057 5.69825 26.5871 8.2122 25.8372C9.93491 26.9954 9.91314 25.5988 11.9143 25.3736C11.9163 25.6282 11.9973 36.6173 13.3753 28.1977C13.5808 26.9423 13.1439 26.5805 14.2783 26.3275L14.7421 26.5198C16.3352 26.5694 16.2845 26.4089 17.5288 25.364L19.7902 25.3291C21.2026 27.7944 22.7764 27.4387 23.1505 24.6171C26.4977 25.0407 26.7104 25.8569 29.3291 23.7984C29.3955 23.7463 29.3292 23.7984 30.3503 23.5419C31.1288 23.5403 31.9075 23.5383 32.6855 23.5368C33.6119 26.8947 34.7463 25.1085 34.8572 24.9339C34.8592 24.5898 35.087 24.6971 35.0885 24.3965C35.089 24.3206 35.0886 24.3965 35.0117 23.4487C35.4571 23.1305 35.9026 22.8122 36.3481 22.4944C37.2264 21.8528 37.1155 21.8538 37.6441 20.9586C37.5469 19.899 37.5433 20.0165 36.992 19.1168C38.82 17.6832 46.979 17.4419 47.8583 17.4155C48.2365 17.3007 48.6146 17.1858 48.9923 17.0709C49.7051 17.245 50.4244 18.5824 51.7998 16.5214C53.2218 16.3509 53.1535 16.2699 54.5978 16.4905C55.5708 17.4019 55.5975 17.5891 56.8312 17.0694C56.9127 17.0912 57.8488 17.3407 57.8488 17.3407C59.7583 16.3403 59.7229 16.4708 61.8981 16.3124C63.2817 17.4843 63.6619 15.9167 65.2024 16.7309C66.8147 17.583 66.716 16.4744 67.5234 16.3377L69.1317 16.2643C70.2465 16.912 70.2566 16.6449 71.4057 17.37C71.5859 16.9141 71.7667 16.4581 71.9469 16.0022C73.4707 16.3443 72.7887 14.6805 74.2851 14.5241C77.4101 14.1983 77.2391 15.137 80.4294 15.2311C83.4901 17.6311 83.4146 15.1066 83.8156 14.7949C84.5734 16.4718 84.4909 17.4348 85.0017 17.4267C86.4794 17.4029 85.7534 16.7486 85.8207 15.306C85.9296 12.9672 90.3288 16.2026 93.1652 14.5646L93.7382 14.5505C94.3371 14.4695 94.936 14.389 95.5348 14.3081C96.2066 14.7088 96.075 14.7772 96.7726 15.188C96.7736 15.2068 96.8283 19.7893 98.9135 15.9754L99.122 16.3904C100.34 17.6372 100.452 18.0572 101.935 17.1185C102.505 15.6303 102.516 15.7796 103.458 14.5151C104.215 14.4361 104.972 14.3572 105.728 14.2787C106.654 14.5459 106.745 14.5555 107.245 13.6462L108.019 13.333C109.841 13.1316 110.863 12.5446 111.084 12.4171C112.702 12.5522 113.325 13.1427 113.513 11.4208C113.923 7.65905 111.233 11.1425 110.752 11.4481C110.193 11.4365 109.634 11.4253 109.076 11.4137C110.062 9.88552 110.179 10.1036 111.106 8.52081L111.45 7.58417C111.959 7.35646 112.468 7.12875 112.977 6.90054L114.183 5.88598C116.281 4.34516 116.038 4.16048 116.221 4.03802C117.536 3.15604 117.495 4.22019 118.057 4.18426C118.388 4.16301 118.229 3.34731 118.56 3.32656C119.043 1.55652 119.048 1.33792 120.875 1.21951C121.052 1.24127 121.228 1.26354 121.404 1.2853C122.92 1.36069 122.712 1.86871 124.273 2.13741L124.221 2.98349C124.898 3.49305 125.576 4.00261 126.254 4.51216C126.329 4.36947 126.739 3.58412 127.605 3.02244C128.73 2.89391 127.93 2.13288 128.732 1.34299C131.656 -1.53877 136.642 3.87002 137.126 4.39526C139.354 4.93316 139.327 3.98689 139.207 1.71691C141.3 0.132073 141.686 3.14236 143.38 1.96587C144.596 1.12083 144.593 1.30452 146.135 1.12742L146.75 1.73313C147.111 1.91276 147.472 2.09187 147.833 2.27151C149.562 3.68835 149.678 3.46317 150.256 4.63965C149.02 5.36832 149.11 5.29748 149.02 5.36832C147.541 6.53013 149.62 6.87625 151.2 5.43917C153.049 4.69381 151.958 3.95402 152.844 2.22092C153.15 2.03724 153.456 1.85303 153.762 1.66935C154.06 2.12021 154.359 2.57109 154.656 3.02194L154.657 3.56338C155.171 4.4059 155.277 4.20147 156.206 4.4818C157.569 4.16403 157.498 4.25915 158.461 3.4303L158.962 2.943L159.634 3.22131C160.273 6.59946 161.125 2.93744 161.154 2.81499C161.343 2.64142 161.533 2.46786 161.722 2.2943C163.619 2.94352 163.797 2.56652 164.956 4.25965C164.952 5.82577 165.407 6.66827 166.87 5.37641L168.019 5.44676C170.139 3.58868 168.629 3.28 166.923 1.13297C168.014 1.27365 168.549 0.433156 169.654 2.51794C169.887 2.83268 170.12 3.14743 170.353 3.46218C170.9 4.47775 171.26 4.62397 171.92 3.57348L171.829 3.02142C171.784 1.88693 171.598 1.89908 171.971 1.10666L172.53 1.12538C174.126 3.54716 174.569 3.13831 174.739 2.98195C174.87 2.86101 174.834 2.89441 175.286 0.823294C175.68 0.926015 176.074 1.02923 176.467 1.13196C177.005 1.6071 176.846 1.59852 177.503 2.04685C178.735 2.88785 178.598 3.16209 178.71 3.10036C179.02 2.93085 178.986 2.38741 179.296 2.21789C181.619 2.40461 181.744 2.11768 182.289 2.80384C183.019 3.72225 183.155 3.36248 184.326 3.02244C186.309 5.59806 186.705 3.73592 186.627 3.56388C186.134 2.48151 186.547 2.59283 187.351 1.67188L187.812 2.19915C187.999 2.41876 188.116 2.69251 188.303 2.91212C189.072 3.81333 188.896 2.78967 189.171 1.70731C189.623 1.38447 189.634 1.87277 196.102 2.21737C196.262 2.33932 204.147 7.43237 198.353 1.10061C202.38 1.05557 202.177 1.73361 206.225 2.22293C207.848 5.29747 207.613 5.5267 207.91 5.5687C208.163 5.60462 208.815 5.69773 210.222 3.36399C211.795 3.46216 211.686 3.52543 211.795 3.46218C213.474 2.48354 213.555 2.94503 215.377 2.40916C215.481 2.65205 215.586 2.89441 215.69 3.1373L217.425 3.68127C217.961 4.45902 218.498 5.23677 219.034 6.01452C219.126 6.09295 221.56 7.11357 219.739 4.68926C219.411 4.34264 219.083 3.99549 218.756 3.64887C219.077 3.17828 219.398 2.70771 219.719 2.23661C220.77 1.98613 221.909 2.43647 222.96 2.18599C223.315 2.10148 223.346 1.55551 223.614 1.30757C225.023 0.00255306 225.404 5.33138 226.241 2.90149C226.97 0.786858 227.497 1.33996 229.258 0.00407678L229.262 0ZM421.877 28.8262C422.793 28.4538 422.82 28.3505 423.546 28.9294C433.965 28.6551 421.537 30.5325 421.318 30.5654C420.968 29.5265 421.076 29.5047 421.877 28.8262ZM403.322 74.3943C403.232 74.3498 401.137 73.3003 402.805 73.2594C404.853 73.2088 404.69 73.6652 405.75 74.8371C405.346 74.9909 404.942 75.1448 404.538 75.2986C404.039 74.784 404.061 74.8806 403.322 74.3943ZM281.38 50.1557C281.03 50.6718 281.042 50.5757 280.417 50.6577C279.336 49.8142 277.836 49.1609 279.778 48.7419C281.085 48.4595 281.133 48.7485 281.38 50.1557ZM421.465 28.4335C421.603 28.5646 421.74 28.6956 421.878 28.8267C421.077 29.5052 420.969 29.527 421.319 30.5659C420.946 30.619 420.573 30.6716 420.2 30.7248C419.434 30.2162 418.738 29.5908 418.619 29.483C419.88 28.5089 420.114 29.1809 421.465 28.433L421.465 28.4335ZM168.779 5.96896C171.896 5.32784 169.427 9.57382 168.186 7.97582C167.713 7.36557 168.083 7.38277 168.779 5.96896ZM229.496 1.93755C229.543 3.49051 230.088 3.71264 228.686 4.6341C228.334 4.46154 227.982 4.28849 227.63 4.11594C228.003 2.58575 228.281 2.82611 229.496 1.93755ZM405.749 74.8376C406.081 77.056 405.51 77.2392 403.958 77.0702L403.73 76.5945C403.999 76.1624 404.268 75.7307 404.538 75.2986C404.942 75.1448 405.346 74.9909 405.75 74.8371L405.749 74.8376ZM336.868 71.6092C337.165 73.8919 335.627 75.039 335.315 72.6496C335.444 72.5732 335.396 72.5712 336.868 71.6092ZM415.181 74.3614C415.204 74.8973 415.228 75.4327 415.252 75.9686C415.197 76.7463 415.064 76.6314 414.572 77.3272L414.073 77.0868C413.803 75.8759 412.551 75.6103 413.782 75.1114C413.782 75.1114 415.069 74.4217 415.181 74.3614ZM251.069 57.4646C250.687 58.5976 251.197 59.5317 250.174 58.9093C248.904 58.1366 248.726 57.6255 250.027 56.8781C251.204 56.2026 251.026 57.4403 251.069 57.4646ZM277.68 52.3847C281.612 55.9041 276.528 53.6482 276.411 53.5733C277.458 53.5288 277.548 53.499 277.68 52.3847ZM328.491 70.197C329.114 70.2627 329.737 70.3285 330.36 70.3938C330.178 70.7677 329.996 71.1422 329.815 71.5161C329.466 71.8956 329.117 72.2752 328.768 72.6547C328.704 71.2687 327.819 71.3218 328.491 70.1964L328.491 70.197ZM281.38 50.1557C281.777 50.6131 282.806 50.5373 282.047 52.9767L281.606 53.0764C281.539 52.8715 281.423 52.9363 280.416 50.6577C281.041 50.5757 281.029 50.6718 281.379 50.1557H281.38ZM390.371 63.052C392.027 58.4417 391.86 64.1961 391.504 64.186C390.97 64.1708 390.905 63.0672 390.371 63.052ZM421.465 28.4335C422.339 26.4241 423.198 27.4615 423.546 28.9299C422.82 28.351 422.793 28.4542 421.878 28.8267C421.74 28.6956 421.603 28.5646 421.465 28.4335ZM428.036 4.13617C427.968 6.64651 425.089 3.26937 426.572 3.23344C426.71 3.2299 426.572 3.23344 428.036 4.13617ZM180.956 64.2411C181.384 64.775 181.197 64.7613 181.68 65.3478C180.931 66.1873 181.016 66.1594 180.931 66.1873C180.782 66.2354 178.508 66.2409 180.956 64.2411ZM177.636 5.40476C182.281 5.38199 177.262 7.22238 177.116 7.27551C177.29 6.6521 177.463 6.02817 177.636 5.40476ZM337.587 4.20752L337.882 4.5344C338.121 4.85218 338.36 5.16948 338.599 5.48725C338.094 5.59757 337.589 5.70787 337.085 5.81818C335.305 4.45751 337.007 4.42055 337.587 4.20752ZM414.167 3.01231C415.615 2.32868 416.763 3.93124 415.114 4.20854C414.817 3.96211 414.52 3.71518 414.222 3.46875L414.167 3.01181L414.167 3.01231ZM243.524 59.4492C244.396 55.7826 244.972 59.4952 244.909 59.6258C244.512 60.444 244.387 59.857 243.524 59.4492ZM421.865 75.3284C421.332 75.8916 420.55 78.3883 419.891 76.4437C419.388 74.9631 420.342 75.4008 421.865 75.3284ZM281.606 53.0774L282.047 52.9778C283.292 53.2814 283.222 53.3745 283.642 54.7002L283.3 54.6056C282.833 54.4786 282.365 54.3516 281.898 54.2246C281.488 53.6776 281.62 53.7241 281.606 53.078V53.0774ZM245.865 95.0681C243.383 97.0006 244.151 94.4082 244.383 94.3652C245.312 94.1922 245.192 94.4973 245.865 95.0681ZM259.107 57.0345C259.898 57.0871 260.073 56.7228 260.23 57.456C260.553 58.9619 258.008 58.0177 259.107 57.0345ZM322.755 7.93586C322.712 7.07917 322.339 6.98251 323.105 6.5701C323.829 6.18047 325.287 9.56877 322.755 7.93586ZM276.128 51.8741C276.711 51.3443 276.697 51.571 277.522 51.8817L277.68 52.3847C277.094 53.0871 277.238 53.1189 276.411 53.5733C276.317 53.0066 276.223 52.4409 276.128 51.8741ZM329.293 69.3717C330.224 69.2057 330.286 69.0468 330.874 69.8129L330.36 70.3948C329.737 70.329 329.114 70.2632 328.491 70.198L329.293 69.3717ZM177.62 66.1893C177.452 63.4902 178.681 64.5979 178.783 64.7082C179.751 65.746 177.768 66.159 177.62 66.1893ZM387.616 63.1704C387.602 63.6947 387.588 64.2194 387.575 64.7436L387.792 65.2942C387.533 65.0801 387.054 65.658 386.795 65.4439C385.384 64.2791 387.443 63.2565 387.616 63.1704ZM329.815 71.5176L329.864 72.0075C329.97 72.5585 330.076 73.1096 330.181 73.6606C329.171 74.6772 328.794 74.0255 328.768 72.6562C329.116 72.2767 329.466 71.8972 329.815 71.5176ZM234.212 61.1914C234.086 61.1879 229.689 61.0725 233.219 59.9608C233.34 59.9228 235.411 59.2706 234.212 61.1914ZM316.873 71.3405C316.062 70.9418 315.705 71.1695 315.935 70.45C316.149 69.7795 319.443 70.0123 316.873 71.3405ZM206.862 97.4474C209.071 97.2515 208.406 98.2484 208.329 98.3638C207.494 99.6167 206.708 99.0069 206.862 97.4474ZM284.794 49.8207C284.862 49.923 286.137 51.8215 283.931 51.0939C282.11 50.4932 284.674 49.8506 284.794 49.8207ZM376.432 73.1435C376.52 72.9952 377.513 71.3254 378.369 72.2003C379.196 73.0438 376.604 73.1374 376.432 73.1435ZM281.898 54.2241C282.366 54.3511 282.833 54.4781 283.301 54.6051L283.132 56.199C282.853 56.0553 282.355 56.4551 281.898 54.2241ZM405.017 28.8404C403.635 31.5814 403.598 28.2088 404.041 27.9017C404.728 27.4255 404.556 27.9655 405.017 28.8404ZM373.413 97.6963C372.564 97.8188 372.387 98.0794 372.038 97.3027C371.873 96.9353 374.006 94.7533 373.413 97.6963ZM143.289 6.30344L143.885 6.41577C144.355 6.80996 144.341 6.6875 144.914 6.43298C143.044 8.47626 143.204 6.40262 143.289 6.30344ZM349.95 73.9055C350.439 75.0157 350.202 75.2849 348.953 75.2784C348.932 74.2349 349.075 74.2972 349.95 73.9055ZM418.618 29.4845C418.738 29.5923 419.433 30.2177 420.2 30.7263C418.702 30.8087 417.927 30.8234 418.618 29.4845ZM372.366 3.59628C373.375 0.999408 373.607 3.48342 373.607 3.58259C373.607 4.61487 373.026 4.46106 372.366 3.59628ZM338.6 5.48824C339.094 6.42235 339.054 6.38847 338.542 7.26893C338.056 6.78569 337.571 6.30242 337.086 5.81917C337.59 5.70886 338.095 5.59855 338.6 5.48824ZM358.934 2.51998C358.947 3.35439 359.247 3.63828 358.429 3.60943C355.849 3.51886 358.843 2.54983 358.934 2.51998ZM338.542 7.26893C338.056 6.78569 337.571 6.30242 337.086 5.81917C336.685 8.54508 338.128 7.3165 338.542 7.26893ZM397.885 75.8431C398.214 75.9013 398.543 75.9595 398.873 76.0171C398.635 76.2808 395.684 78.1652 397.885 75.8431ZM234.912 96.6423C234.166 96.0214 234.329 95.7588 234.376 95.6839C234.961 94.7442 236.574 96.3412 234.912 96.6423ZM275.943 50.1051C275.197 51.104 275.36 51.064 275.297 51.1374L274.749 51.1683L274.337 50.6901C274.799 49.798 274.876 49.8577 275.942 50.1046L275.943 50.1051ZM6.01152 28.893L7.87603 28.8484C7.2078 30.1641 6.53243 30.2926 6.01152 28.893ZM288.143 4.8451C288.853 6.50483 287.206 6.77251 287.216 5.83082C287.217 5.72253 287.22 5.42499 288.143 4.8451ZM265.757 56.2901C263.457 54.7346 266.142 55.1223 266.242 55.2776C266.638 55.8954 266.241 55.8307 265.757 56.2901ZM3.7902 29.905C4.38553 29.024 4.41945 28.1547 4.91859 29.0792C5.45824 30.0781 4.93783 30.2774 3.7902 29.905ZM316.857 3.02852C318.945 5.05208 316.565 4.48837 316.459 4.43878C315.954 4.20298 316.308 4.09723 316.857 3.02852ZM395.043 3.31189C396.757 3.58109 396.657 3.48443 396.757 3.58108C402.111 8.77583 395.152 3.39791 395.043 3.31189ZM6.01152 28.893C6.54256 27.5545 7.09339 27.7139 7.87603 28.8479L6.01152 28.893ZM186.579 96.6696C185.938 96.2107 185.614 96.2628 186.025 95.651C186.297 95.2457 188.676 95.3778 186.579 96.6696ZM205.224 5.8369C205.69 5.27371 205.621 4.98071 206.195 5.33543C206.816 5.71848 206.1 7.43237 205.224 5.8369ZM229.258 61.9641C230.107 62.7904 228.462 63.4295 228.544 62.4949C228.55 62.424 228.544 62.4949 229.258 61.9641ZM287.202 73.7517C287.642 73.1268 287.537 72.6825 288.221 73.1986C288.374 73.314 288.63 75.8091 287.202 73.7517ZM410.754 75.4813C411.105 75.46 411.456 75.4382 411.808 75.417L411.954 76.0925C411.15 76.5302 410.853 76.4594 410.754 75.4813ZM236.57 57.5182C234.648 58.3759 234.757 57.5683 234.855 57.4717C234.952 57.3755 234.855 57.4717 236.57 57.5182ZM335.503 71.0906C337.192 69.6282 336.888 71.4944 336.869 71.6097L335.503 71.0906ZM283.301 54.6051L283.642 54.6997C284.068 55.6191 284.025 55.7578 283.132 56.199L283.301 54.6051Z" fill="#FFFF00"/>
</svg>
